<svg xmlns="http://www.w3.org/2000/svg" width="353" height="24" fill="none" xmlns:v="https://vecta.io/nano"><path fill-rule="evenodd" d="M219.699 24h-2.469l17.369-24h2.469l-17.369 24zm8.644 0h-2.469l17.369-24h2.468l-17.368 24zm8.642 0h-2.469l17.369-24h2.469l-17.369 24zm8.644 0h-2.469l17.369-24h2.469l-17.369 24zm8.642 0h-2.469l17.369-24h2.469l-17.369 24zm8.644 0h-2.469l17.369-24h2.469l-17.369 24zm8.642 0h-2.468l17.368-24h2.469l-17.369 24zm8.644 0h-2.469l17.369-24h2.469l-17.369 24zm8.643 0h-2.469l17.369-24h2.468l-17.368 24zm8.643 0h-2.469l17.369-24h2.469l-17.369 24zm8.643 0h-2.469L321.03 0h2.469L306.13 24zm8.643 0h-2.469l17.369-24h2.469l-17.369 24zm8.643 0h-2.469l17.369-24h2.469l-17.369 24zm8.643 0h-2.468l17.368-24h2.469l-17.369 24zm8.643 0h-2.469L353 3.595v3.411L340.702 24zm8.644 0h-2.469L353 15.539v3.411L349.346 24zM228.425 0l-17.369 24h-2.468l17.369-24h2.468zm-11.103 0h2.469l-17.369 24h-2.469l17.369-24zm-8.643 0h2.469l-17.369 24h-2.469l17.369-24zm-8.643 0h2.468l-17.368 24h-2.469l17.369-24zm-8.644 0h2.469l-17.369 24h-2.469l17.369-24zm-8.643 0h2.469l-17.369 24h-2.468l17.368-24zm-8.642 0h2.469l-17.369 24h-2.469l17.369-24zm-8.644 0h2.469l-17.369 24h-2.469l17.369-24zm-8.642 0h2.469l-17.369 24h-2.469l17.369-24zm-8.644 0h2.469l-17.369 24h-2.469l17.369-24zm-8.642 0h2.468l-17.368 24h-2.469l17.369-24zm-8.644 0h2.469l-17.369 24h-2.469l17.369-24zm-8.642 0h2.468l-17.369 24h-2.468l17.369-24zm-8.644 0h2.469L98.705 24h-2.469l17.369-24zm-8.643 0h2.469L90.062 24h-2.469l17.368-24zm-8.643 0h2.469L81.419 24H78.95L96.319 0zm-8.643 0h2.469L72.776 24h-2.469L87.676 0zm-8.643 0h2.469L64.133 24h-2.469L79.033 0zM70.39 0h2.469L55.49 24h-2.469L70.39 0zm-8.644 0h2.469L46.847 24h-2.469L61.747 0zm-8.643 0h2.469L38.204 24h-2.469L53.104 0zM44.46 0h2.469L29.56 24h-2.469L44.46 0zm-8.643 0h2.469L20.918 24h-2.469L35.818 0zm-8.643 0h2.469L12.274 24H9.805L27.174 0zm-8.643 0H21L3.632 24H1.163L18.532 0zM9.888 0h2.469L0 17.075v-3.411L9.888 0zM1.246 0h2.469L0 5.132V1.721L1.246 0z" fill="#db2e9a"/></svg>