<svg xmlns="http://www.w3.org/2000/svg" width="181" height="41" fill="none" xmlns:v="https://vecta.io/nano"><g fill="#000"><path d="M66.894 1.271v.424c-.76.169-1.267.847-1.774 1.948l-5.068 13.3h-.169-.169L54.309 3.134c-.338-.932-.845-1.355-1.52-1.44V1.27c.591.085 1.351.085 2.365.085l2.787-.085v.424c-.591 0-.929.085-1.183.169s-.338.339-.338.593.084.593.253 1.017l3.97 10.589 3.547-9.318c.253-.762.422-1.355.422-1.779a1.21 1.21 0 0 0-.507-1.017c-.253-.169-.676-.254-1.351-.254V1.27c.845.085 1.689.085 2.534.085.676 0 1.182-.085 1.605-.085zm3.548 13.553c0 .593.084 1.016.338 1.271s.676.339 1.267.339v.423l-2.618-.085-2.618.085v-.423c.591 0 1.014-.085 1.267-.339s.338-.678.338-1.271V7.878c0-.678-.085-1.186-.338-1.44-.253-.339-.676-.508-1.267-.508v-.424c.507.085.929.085 1.351.085.929 0 1.689-.085 2.281-.339v9.572zm-.169-14.4c.253.254.422.593.422 1.017s-.169.678-.422 1.017c-.253.254-.591.424-1.013.424s-.676-.169-1.014-.424c-.253-.254-.422-.593-.422-1.017s.169-.678.422-1.017C68.584.169 68.922 0 69.26 0a1.55 1.55 0 0 1 1.013.424zm13.006 5.082v.424a1.01 1.01 0 0 0-.76.424c-.253.254-.422.593-.676 1.186l-3.632 9.403h-.338L73.82 7.2c-.253-.508-.422-.847-.676-1.017a.91.91 0 0 0-.591-.254v-.424c.76.085 1.436.085 1.943.085l2.872-.085v.424c-.507 0-.929 0-1.182.085s-.338.254-.338.593c0 .169.085.508.253.932l2.703 6.692 2.28-6.184c.169-.424.253-.762.253-1.017a.89.89 0 0 0-.422-.762c-.253-.169-.676-.254-1.267-.339v-.424c.76.085 1.351.085 1.858.085l1.774-.085zm8.953.17c.338.339.591.762.591 1.271a1.48 1.48 0 0 1-.338 1.017c-.253.254-.507.424-.929.424a1.08 1.08 0 0 1-.845-.339c-.253-.169-.338-.508-.338-.847 0-.508.253-.847.76-1.186-.084-.169-.253-.254-.422-.254-.591 0-1.098.254-1.52.678-.507.424-.845 1.017-1.098 1.61-.253.678-.422 1.271-.422 1.864v4.659c0 .678.169 1.186.591 1.44s.929.424 1.774.424v.423h-.507l-2.872-.085-2.618.085v-.423c.591 0 1.013-.085 1.267-.339s.338-.678.338-1.271V7.878c0-.678-.084-1.186-.338-1.44-.253-.339-.676-.424-1.267-.424v-.508c.507.085.929.085 1.351.085.929 0 1.689-.085 2.281-.339v2.711c.253-.762.676-1.355 1.267-1.948s1.183-.847 1.943-.847c.507 0 .929.169 1.351.508zm5.152 9.148c0 .593.084 1.016.338 1.271s.676.339 1.267.339v.423l-2.618-.085-2.618.085v-.423c.591 0 1.014-.085 1.267-.339s.338-.678.338-1.271V7.878c0-.678-.085-1.186-.338-1.44-.253-.339-.676-.424-1.267-.424v-.508c.507.085.929.085 1.351.085.929 0 1.689-.085 2.28-.339v9.572zm-.169-14.4c.253.254.422.593.422 1.017s-.169.678-.422 1.017c-.253.254-.591.424-1.013.424s-.676-.169-1.014-.424c-.253-.254-.422-.593-.422-1.017s.169-.678.422-1.017A1.39 1.39 0 0 1 96.201 0a1.39 1.39 0 0 1 1.013.424zm6.42 5.082h3.209v.424h-3.209v8.556c0 .678.084 1.101.338 1.44.253.254.591.424 1.013.424s.845-.169 1.183-.508.591-.932.844-1.779l.422.085c-.337 2.033-1.351 3.05-2.871 3.05-.507 0-.929-.085-1.267-.169s-.591-.339-.845-.508c-.338-.339-.507-.678-.675-1.186a10.76 10.76 0 0 1-.169-1.864V5.93h-2.112v-.424h2.112V2.118c.844 0 1.435-.169 1.942-.339v3.727h.085zm7.938 9.318c0 .593.085 1.016.338 1.271s.676.339 1.267.339v.423l-2.618-.085-2.619.085v-.423c.592 0 1.014-.085 1.267-.339s.338-.678.338-1.271V7.878c0-.678-.084-1.186-.338-1.44-.253-.339-.675-.508-1.267-.508v-.424c.507.085.929.085 1.352.085.929 0 1.689-.085 2.28-.339v9.572zm-.169-14.4c.254.254.423.593.423 1.017s-.169.678-.423 1.017c-.253.254-.591.424-1.013.424s-.676-.169-1.014-.424c-.253-.254-.422-.593-.422-1.017s.169-.678.422-1.017c.254-.254.591-.424 1.014-.424a1.39 1.39 0 0 1 1.013.424zm20.947 15.925v.424c-.591-.085-1.351-.085-2.365-.085l-2.787.085v-.424c.591 0 .929-.085 1.182-.169s.338-.339.338-.593-.084-.593-.253-1.017l-1.351-3.642h-5.322l-.929 2.372c-.253.762-.422 1.355-.422 1.779s.169.762.507 1.016c.338.17.76.339 1.436.339v.423c-.845-.085-1.69-.085-2.534-.085-.676 0-1.183 0-1.605.085v-.423c.76-.169 1.267-.847 1.774-1.948l5.152-13.3h.338l5.321 13.808c.338.932.844 1.355 1.52 1.355zm-5.321-5.845l-2.449-6.607-2.534 6.607h4.983zm11.149-5.083c.422.169.76.339 1.014.593.168.085.253.169.422.169.253 0 .422-.339.507-.932h.506c-.084.678-.084 1.948-.084 3.727h-.507c-.169-.932-.507-1.779-.929-2.372s-1.182-.932-2.027-.932a2.07 2.07 0 0 0-1.267.424c-.338.339-.507.678-.507 1.271 0 .508.169.932.507 1.271s.929.762 1.689 1.271c.169.085.338.169.592.339.675.424 1.182.847 1.604 1.186a4.47 4.47 0 0 1 1.014 1.186c.254.424.422.932.422 1.525 0 .932-.338 1.694-1.098 2.287-.76.508-1.605.847-2.703.847-.675 0-1.266-.085-1.773-.339-.338-.169-.591-.339-.929-.593-.085-.085-.085-.085-.169-.085s-.169.085-.254.254-.169.339-.169.593h-.591c.085-.847.085-2.287.085-4.405h.506c.169 1.355.423 2.372.845 3.05s1.183 1.017 2.196 1.017c.507 0 .929-.169 1.351-.508s.592-.847.592-1.61c0-.593-.169-1.017-.592-1.44s-1.013-.847-1.858-1.44l-1.689-1.101c-.422-.254-.676-.678-1.013-1.101a2.93 2.93 0 0 1-.423-1.525c0-.932.338-1.61.929-2.118s1.352-.762 2.365-.762a3.63 3.63 0 0 1 1.436.254zm9.798 0c.423.169.761.339 1.014.593.169.085.253.169.422.169.254 0 .423-.339.507-.932h.507c-.085.678-.085 1.948-.085 3.727h-.506c-.169-.932-.507-1.779-.93-2.372s-1.182-.932-2.027-.932c-.506 0-.929.169-1.267.424a1.6 1.6 0 0 0-.506 1.271 1.73 1.73 0 0 0 .506 1.271c.337.339.93.762 1.69 1.271a4.81 4.81 0 0 1 .591.339c.676.424 1.182.847 1.605 1.186a4.45 4.45 0 0 1 1.013 1.186 2.93 2.93 0 0 1 .423 1.525c0 .932-.338 1.694-1.098 2.287-.761.508-1.605.847-2.703.847-.676 0-1.267-.085-1.774-.339-.338-.169-.591-.339-.929-.593-.084-.085-.084-.085-.169-.085s-.169.085-.253.254-.169.339-.169.593h-.507c.084-.847.084-2.287.084-4.405h.507c.169 1.355.423 2.372.845 3.05s1.182 1.017 2.196 1.017c.507 0 .929-.169 1.351-.508s.591-.847.591-1.61c0-.593-.168-1.017-.591-1.44s-1.013-.847-1.858-1.44l-1.689-1.101c-.422-.254-.676-.678-1.014-1.101-.253-.424-.422-.932-.422-1.525 0-.932.338-1.61.929-2.118s1.351-.762 2.365-.762c.507 0 .929.085 1.351.254zm14.02 8.81c-.253.847-.76 1.525-1.52 2.118s-1.605.847-2.618.847-1.943-.254-2.703-.678-1.351-1.186-1.774-2.033-.591-1.864-.591-2.965c0-1.271.169-2.372.591-3.304s1.014-1.694 1.774-2.202 1.605-.762 2.618-.762c1.352 0 2.365.424 3.041 1.186s1.098 2.033 1.098 3.643h-6.842c-.084.423-.084.847-.084 1.44 0 .932.169 1.779.507 2.541.338.678.76 1.271 1.267 1.694a2.52 2.52 0 0 0 1.604.593c.676 0 1.352-.169 1.859-.508s1.013-.932 1.351-1.694l.422.085zm-6.081-7.624c-.507.678-.845 1.694-.929 2.965h4.814c0-1.186-.169-2.118-.506-2.88s-.93-1.186-1.605-1.186c-.676.085-1.267.424-1.774 1.101zm11.232-1.101h3.21v.424h-3.21v8.556c0 .678.085 1.101.338 1.44.254.254.591.424 1.014.424s.844-.169 1.182-.508.591-.932.845-1.779l.422.085c-.338 2.033-1.351 3.05-2.872 3.05a5.09 5.09 0 0 1-1.266-.169c-.338-.085-.592-.339-.845-.508-.338-.339-.507-.678-.676-1.186a10.86 10.86 0 0 1-.169-1.864V5.93h-2.111v-.424h2.111V2.118c.845 0 1.436-.169 1.943-.339v3.727h.084zM70.018 21.94a.76.76 0 0 0-.507.508c-.084.254-.169.678-.169 1.186v10.928c0 .593.084.932.169 1.186a.76.76 0 0 0 .507.508c.253.085.591.169 1.183.169v.424c-.676-.085-1.605-.085-2.787-.085l-2.787.085v-.424c.507 0 .929-.085 1.183-.169a.76.76 0 0 0 .507-.508c.085-.254.169-.678.169-1.186V22.787l-5.321 14.231h-.507l-5.49-14.316v11.605c0 .593.084 1.017.169 1.271s.253.508.591.593c.253.085.676.169 1.267.254v.424c-.507-.085-1.267-.085-2.196-.085l-2.027.085v-.424c.507 0 .929-.085 1.182-.254.253-.085.422-.339.507-.593s.169-.678.169-1.271V23.634c0-.593-.084-.932-.169-1.186a.76.76 0 0 0-.507-.508c-.253-.085-.591-.169-1.182-.169v-.424c.507.085 1.182.085 2.027.085l1.858-.085 4.814 12.707 4.73-12.707h1.013l2.787-.085v.424c-.591.085-1.014.169-1.183.254zm3.464 14.401c-.422-.423-.676-1.101-.676-1.948 0-.678.169-1.186.507-1.61s.76-.762 1.267-1.017 1.098-.508 1.943-.762 1.436-.508 1.858-.762.591-.508.591-.932v-1.355c0-.847-.169-1.44-.507-1.779s-.845-.508-1.52-.508c-1.013 0-1.774.254-2.196.762.253.085.507.254.76.424.169.254.338.508.338.847s-.084.678-.338.847c-.253.254-.507.339-.929.339s-.676-.169-.929-.424c-.169-.254-.338-.593-.338-.932s.085-.678.253-.847a2 2 0 0 1 .76-.678c.338-.254.76-.424 1.351-.593.507-.169 1.098-.254 1.774-.254 1.183 0 2.027.254 2.618.847a3.55 3.55 0 0 1 .76 1.186 10.76 10.76 0 0 1 .169 1.864v6.099c0 .339.084.593.169.762s.253.254.507.254c.169 0 .338 0 .507-.085s.338-.169.507-.339l.253.339c-.422.254-.676.508-1.014.593a3.14 3.14 0 0 1-1.013.169c-.676 0-1.182-.169-1.436-.508s-.422-.847-.422-1.44c-.422.762-.929 1.271-1.52 1.525s-1.183.424-1.943.424c-1.014.169-1.689 0-2.112-.508zm5.49-1.864v-4.32l-.507.508c-.253.169-.591.339-1.098.508-.591.254-1.014.424-1.351.678s-.676.508-.929.847-.338.847-.338 1.44c0 .678.169 1.186.507 1.525s.76.508 1.267.508c.929 0 1.774-.593 2.449-1.694zm14.275-8.386c.253.254.507.678.591 1.101a9.01 9.01 0 0 1 .169 1.779v5.845c0 .593.085 1.017.338 1.271s.676.339 1.267.339v.424l-2.618-.085-2.449.085v-.424c.507 0 .929-.085 1.098-.339.253-.254.338-.678.338-1.271v-6.353c0-.847-.084-1.44-.338-1.864s-.676-.678-1.436-.678c-.591 0-1.098.169-1.605.508s-.845.847-1.098 1.44a5.14 5.14 0 0 0-.422 2.033v4.913c0 .593.084 1.017.338 1.271s.591.339 1.098.339v.424l-2.449-.085-2.618.085v-.424c.591 0 1.014-.085 1.267-.339s.338-.678.338-1.271v-6.861c0-.678-.085-1.186-.338-1.44-.253-.339-.676-.424-1.267-.424v-.424c.507.085.929.085 1.351.085.929 0 1.689-.085 2.28-.339v2.541c.338-.932.845-1.61 1.52-2.033s1.351-.593 2.196-.593c1.098-.085 1.858.169 2.449.762zm4.222 10.25c-.422-.423-.676-1.101-.676-1.948 0-.678.169-1.186.507-1.61s.76-.762 1.267-1.017 1.098-.508 1.942-.762 1.436-.508 1.858-.762.592-.508.592-.932v-1.355c0-.847-.169-1.44-.507-1.779s-.845-.508-1.52-.508c-1.014 0-1.774.254-2.196.762.253.085.507.254.76.424.169.254.338.508.338.847s-.085.678-.338.847c-.253.254-.507.339-.929.339s-.676-.169-.929-.424c-.169-.254-.338-.593-.338-.932s.085-.678.253-.847a2 2 0 0 1 .76-.678c.338-.254.76-.424 1.351-.593.506-.169 1.098-.254 1.773-.254 1.183 0 2.027.254 2.619.847.337.339.591.762.76 1.186a10.86 10.86 0 0 1 .169 1.864v6.099a1.69 1.69 0 0 0 .169.762c.084.169.253.254.506.254.169 0 .338 0 .507-.085s.338-.169.507-.339l.253.339c-.422.254-.675.508-1.013.593-.254.085-.591.169-1.014.169-.675 0-1.182-.169-1.436-.508s-.422-.847-.422-1.44c-.422.762-.929 1.271-1.52 1.525a4.68 4.68 0 0 1-1.943.424c-.929.169-1.605 0-2.112-.508zm5.49-1.864v-4.32l-.507.508c-.254.169-.591.339-1.098.508-.591.254-1.014.424-1.352.678s-.675.508-.929.847-.338.847-.338 1.44c0 .678.169 1.186.507 1.525s.76.508 1.267.508c.929 0 1.774-.593 2.45-1.694z"/><path d="M116.557 27.277c-.169-.17-.253-.424-.253-.762 0-.254.084-.593.253-1.017-.422.169-.675.339-.929.508s-.422.424-.591.762c.338.508.507 1.186.507 1.948 0 1.186-.338 2.033-1.014 2.626s-1.605.847-2.787.847c-.507.254-.845.508-1.098.762s-.338.508-.338.762c0 .508.338.678 1.014.678h2.702c1.014 0 1.859.254 2.45.678.676.424 1.013 1.101 1.013 1.948 0 .678-.253 1.355-.675 1.948s-1.098 1.101-2.027 1.44c-.845.339-1.943.508-3.21.508s-2.365-.169-3.209-.593-1.267-.932-1.267-1.694c0-.508.169-.932.591-1.271s.929-.678 1.689-.847l.169.339c-.338.085-.591.339-.76.593a2.26 2.26 0 0 0-.254 1.017c0 .678.338 1.186.93 1.525s1.435.508 2.449.508c1.098 0 2.111-.254 2.872-.678.844-.423 1.182-1.101 1.182-2.033 0-.508-.169-.932-.591-1.271-.338-.254-1.014-.424-2.027-.424h-1.605c-.845 0-1.52-.085-2.112-.339-.506-.254-.76-.678-.76-1.355 0-.424.169-.847.507-1.271s.845-.847 1.605-1.186c-.929-.085-1.774-.424-2.281-1.017-.591-.593-.844-1.355-.844-2.457 0-1.186.338-2.033 1.013-2.626s1.605-.847 2.788-.847c1.351 0 2.364.424 3.04 1.186a2.92 2.92 0 0 1 1.014-1.017c.423-.255.844-.424 1.267-.424s.675.085.929.339.338.508.338.932-.085.678-.338.932c-.254.169-.507.339-.76.339-.169.254-.423.169-.592 0zm-3.547 3.812c.338-.424.422-1.271.422-2.372s-.169-1.948-.422-2.372c-.338-.423-.76-.678-1.351-.678s-1.014.254-1.352.678-.422 1.271-.422 2.372.169 1.948.422 2.372c.338.424.76.678 1.352.678s1.013-.169 1.351-.678zm15.372 3.134c-.253.847-.76 1.525-1.52 2.118s-1.605.847-2.619.847-1.942-.254-2.702-.678-1.352-1.186-1.774-2.033-.591-1.864-.591-2.965c0-1.271.169-2.372.591-3.304s1.014-1.694 1.774-2.203 1.604-.762 2.618-.762c1.351 0 2.365.424 3.041 1.186s1.098 2.033 1.098 3.642h-6.842c-.084.424-.084.847-.084 1.44 0 .932.169 1.779.507 2.541.337.678.76 1.271 1.266 1.694a2.52 2.52 0 0 0 1.605.593c.676 0 1.352-.169 1.858-.508s1.014-.932 1.352-1.694l.422.085zm-5.997-7.539c-.506.678-.844 1.694-.929 2.965h4.815c0-1.186-.169-2.118-.507-2.88s-.929-1.186-1.605-1.186c-.676.085-1.267.424-1.774 1.101zm24.832 9.403c.253.254.676.339 1.267.339v.424l-2.619-.085-2.449.085v-.424c.507 0 .929-.085 1.098-.339s.338-.678.338-1.271v-6.353c0-.593 0-1.017-.085-1.355s-.253-.593-.422-.847c-.253-.254-.591-.339-1.098-.339-.591 0-1.098.169-1.52.508a3.84 3.84 0 0 0-1.098 1.44 5.14 5.14 0 0 0-.422 2.033v4.913c0 .593.084 1.017.337 1.271s.676.339 1.267.339v.424l-2.618-.085-2.449.085v-.424c.506 0 .929-.085 1.098-.339.253-.254.338-.678.338-1.271v-6.353c0-.593 0-1.017-.085-1.355s-.253-.593-.422-.847c-.254-.254-.591-.339-1.098-.339-.591 0-1.098.169-1.521.508a3.85 3.85 0 0 0-1.098 1.44 5.14 5.14 0 0 0-.422 2.033v4.913c0 .593.085 1.017.338 1.271s.591.339 1.098.339v.424l-2.449-.085-2.619.085v-.424c.592 0 1.014-.085 1.267-.339s.338-.678.338-1.271v-6.862c0-.678-.084-1.186-.338-1.44-.253-.339-.675-.424-1.267-.424v-.424c.507.085.929.085 1.352.085.929 0 1.689-.085 2.28-.339v2.541c.338-.932.845-1.61 1.52-2.033s1.352-.678 2.112-.678c1.014 0 1.774.254 2.28.847.338.424.592.932.676 1.779.338-.932.845-1.61 1.52-2.033s1.352-.593 2.112-.593c1.013 0 1.774.254 2.28.847.254.254.423.678.592 1.101.084.424.169 1.017.169 1.779v5.845c.084.678.168 1.017.422 1.271zm11.739-1.864c-.253.847-.76 1.525-1.52 2.118s-1.605.847-2.618.847-1.943-.254-2.703-.678-1.351-1.186-1.774-2.033-.591-1.864-.591-2.965c0-1.271.169-2.372.591-3.304s1.014-1.694 1.774-2.203 1.605-.762 2.618-.762c1.352 0 2.365.424 3.041 1.186s1.098 2.033 1.098 3.642h-6.842c-.084.424-.084.847-.084 1.44 0 .932.169 1.779.507 2.541.338.678.76 1.271 1.267 1.694a2.52 2.52 0 0 0 1.604.593c.676 0 1.352-.169 1.859-.508s1.013-.932 1.351-1.694l.422.085zm-5.996-7.539c-.507.678-.845 1.694-.93 2.965h4.815c0-1.186-.169-2.118-.507-2.88s-.929-1.186-1.605-1.186c-.675.085-1.267.424-1.773 1.101zm17.314-.593c.253.254.507.678.591 1.101a8.97 8.97 0 0 1 .169 1.779v5.845c0 .593.085 1.017.338 1.271s.676.339 1.267.339v.424l-2.618-.085-2.45.085v-.424c.507 0 .929-.085 1.098-.339.254-.254.338-.678.338-1.271v-6.353c0-.847-.084-1.44-.338-1.864s-.675-.678-1.436-.678a2.77 2.77 0 0 0-1.604.508c-.507.339-.845.847-1.098 1.44a5.12 5.12 0 0 0-.423 2.033v4.913c0 .593.085 1.017.338 1.271s.591.339 1.098.339v.424l-2.449-.085-2.618.085v-.424c.591 0 1.013-.085 1.266-.339s.338-.678.338-1.271v-6.861c0-.678-.084-1.186-.338-1.44-.253-.339-.675-.424-1.266-.424v-.424c.506.085.929.085 1.351.085.929 0 1.689-.085 2.28-.339v2.541c.338-.932.845-1.61 1.521-2.033s1.351-.593 2.196-.593c1.182-.085 1.942.169 2.449.762zm6.927-.508h3.209v.424h-3.209v8.556c0 .678.084 1.101.337 1.44a1.4 1.4 0 0 0 1.014.424c.422 0 .845-.169 1.182-.508s.592-.932.845-1.779l.422.085c-.337 2.033-1.351 3.05-2.871 3.05-.507 0-.929-.085-1.267-.169s-.591-.339-.845-.508c-.338-.339-.507-.678-.676-1.186a10.87 10.87 0 0 1-.168-1.864v-7.37h-2.028v-.424h2.112v-3.388a5.73 5.73 0 0 0 1.943-.339v3.558z"/></g><g stroke="#000" stroke-width="1.4" stroke-miterlimit="10"><path d="M.676 1.61s21.622 12.029 26.098 18.467c4.73 6.777 2.703 13.384 1.52 17.281 0 0-2.787-5.676-9.713-8.979C10.135 24.481 1.858 19.399.676 1.61z"/><path d="M38.513 1.61S16.891 13.638 12.415 20.076c-4.73 6.777-2.703 13.384-1.52 17.281 0 0 2.787-5.676 9.713-8.979 8.446-3.897 16.723-8.979 17.906-26.769z"/></g></svg>